# xmcd
# 
# Track frame offsets:
#     150
#     12095
#     15215
#     27065
#     31557
#     35800
#     36507
#     56085
#     61377
#     71857
#     74647
#     83887
#     87872
#     95195
#     97017
#     97845
#     100280
#     110485
#     112920
#     114187
#     114697
#     115345
#     115675
#     116377
#     117537
#     124522
#     126432
#     133127
#     139987
#     154487
#     156455
#     166220
#     169895
#     187315
#     190087
#     198927
#     199685
#     203552
#     204250
#     212027
#     213202
#     216617
# 
# Disc length: 3111
# 
# Revision: 7
# Processed by: cddbd v1.5.2PL0 Copyright (c) Steve Scherf et al.
# Submitted via: fre:ac v1.0.31
# 
DISCID=6f0c252a
DTITLE=Georg Friedrich Händel - Brockes Passion - Vol. 2 - Capella Savaria, McGegan
DYEAR=1986
DGENRE=classical
TTITLE0=Heul, du Fluch!
TTITLE1=Doch wie, will ich
TTITLE2=Schau, ich fall' in strenger Buße
TTITLE3=Ach, Gott und Herr
TTITLE4=Als Jesus nun
TTITLE5=Er hat den Tod verdient
TTITLE6=Erwäg, erwäg
TTITLE7=Die Nacht war kaum vorbei
TTITLE8=Meine Laster sind die Stricke
TTITLE9=Oh, was hab' ich, verfluchter Mensch
TTITLE10=Laßt diese Tat nicht ungerochen!
TTITLE11=Unsäglich ist mein Schmerz
TTITLE12=Die ihr Gottes Gnad' versäumet
TTITLE13=Wie nun Pilatus Jesum fragt
TTITLE14=Bestrafe diesen Übeltäter
TTITLE15=Hast du denn kein Gehör?
TTITLE16=Sprichst du denn
TTITLE17=Pilatus wunderte sich sehr
TTITLE18=Nein, diesen nicht
TTITLE19=Was fang' ich denn
TTITLE20=Weg, weg, weg!
TTITLE21=Was hat er denn getan?
TTITLE22=Weg, weg, weg!
TTITLE23=Wie er nun sah
TTITLE24=Besinne dich, Pilatus
TTITLE25=Drauf zerreten die Kriegsknecht'
TTITLE26=Ich seh' an einen Stein gebunden
TTITLE27=Drum, Seele, schau
TTITLE28=Dem Himmel gleicht
TTITLE29=Wie nun das Blut
TTITLE30=Die Rosen krönen
TTITLE31=Verwegner Dorn
TTITLE32=Laß  doch diese herbe Schmerzen
TTITLE33=Der zarten Schläfen
TTITLE34=Jesu! Jesu
TTITLE35=Drauf beugten sie aus Spott
TTITLE36=Ein jeder sei ihm untertänig!
TTITLE37=Ja, scheueten sich nicht
TTITLE38=Schäumest du, du Schaum der Welt
TTITLE39=Worauf sie mit dem Rohr
TTITLE40=Bestürzter Sünder
TTITLE41=Heil der Welt
EXTD=Evangelist: Martin Klietmann, tenor\nJesus: István Gáti, baritone\nTochter Zion: Mária Zádori, soprano\n\nSoprano: Katalin Farkas, Éva Bártfai-Barta\nContralto: Éva Lax\nCounter tenors: Drew Minter, Péter Baján, Tamás Csányi\nTenor: Guy de Mey, János
EXTD=Bándi\nBaritone: Gunther Burzynski\nChoir: Stadtsingechor Halle\nCapella Savaria\nDirigent: Nicholas McGegan
EXTT0=
EXTT1=
EXTT2=
EXTT3=
EXTT4=
EXTT5=
EXTT6=
EXTT7=
EXTT8=
EXTT9=
EXTT10=
EXTT11=
EXTT12=
EXTT13=
EXTT14=
EXTT15=
EXTT16=
EXTT17=
EXTT18=
EXTT19=
EXTT20=
EXTT21=
EXTT22=
EXTT23=
EXTT24=
EXTT25=
EXTT26=
EXTT27=
EXTT28=
EXTT29=
EXTT30=
EXTT31=
EXTT32=
EXTT33=
EXTT34=
EXTT35=
EXTT36=
EXTT37=
EXTT38=
EXTT39=
EXTT40=
EXTT41=
PLAYORDER=
